<svg width="33" height="32" viewBox="0 0 33 32" fill="none" xmlns="http://www.w3.org/2000/svg">
<path d="M29.0684 0H3.06836C2.27344 0.00237409 1.51176 0.319207 0.949662 0.881302C0.387566 1.4434 0.0707335 2.20508 0.0683594 3L0.0683594 29C0.0707335 29.7949 0.387566 30.5566 0.949662 31.1187C1.51176 31.6808 2.27344 31.9976 3.06836 32H17.0684V19H13.5684V14H17.0684V11.5C17.1494 8.697 17.8744 6.203 22.6279 6H26.5684V10.956H23.2374C23.0253 10.9433 22.8129 10.9736 22.6129 11.0451C22.4129 11.1166 22.2295 11.2278 22.0736 11.372C21.9176 11.5163 21.7925 11.6905 21.7057 11.8844C21.6189 12.0782 21.5722 12.2876 21.5684 12.5V14H26.5684L25.7154 19H21.5684V32H29.0684C29.8633 31.9976 30.625 31.6808 31.1871 31.1187C31.7492 30.5566 32.066 29.7949 32.0684 29V3C32.066 2.20508 31.7492 1.4434 31.1871 0.881302C30.625 0.319207 29.8633 0.00237409 29.0684 0V0Z" fill="white"/>
</svg>
