<svg width="33" height="32" viewBox="0 0 33 32" fill="none" xmlns="http://www.w3.org/2000/svg">
<path d="M26.5294 7.459C26.5294 7.83874 26.4168 8.20995 26.2058 8.52569C25.9948 8.84144 25.6949 9.08753 25.3441 9.23285C24.9933 9.37817 24.6072 9.41619 24.2348 9.34211C23.8623 9.26802 23.5202 9.08516 23.2517 8.81664C22.9832 8.54813 22.8003 8.20602 22.7263 7.83357C22.6522 7.46113 22.6902 7.07508 22.8355 6.72425C22.9808 6.37341 23.2269 6.07355 23.5427 5.86258C23.8584 5.65161 24.2296 5.539 24.6094 5.539C25.1186 5.539 25.6069 5.74129 25.967 6.10136C26.3271 6.46142 26.5294 6.94978 26.5294 7.459ZM16.0684 21.334C15.0135 21.334 13.9824 21.0212 13.1053 20.4352C12.2282 19.8491 11.5446 19.0162 11.1409 18.0417C10.7372 17.0671 10.6316 15.9948 10.8373 14.9602C11.0431 13.9256 11.551 12.9752 12.2968 12.2293C13.0427 11.4834 13.993 10.9754 15.0275 10.7695C16.0621 10.5637 17.1345 10.6692 18.1091 11.0728C19.0836 11.4764 19.9166 12.16 20.5028 13.037C21.0889 13.914 21.4018 14.9452 21.4019 16C21.4019 16.7004 21.264 17.394 20.996 18.0411C20.728 18.6882 20.3351 19.2762 19.8399 19.7715C19.3446 20.2668 18.7566 20.6596 18.1095 20.9276C17.4624 21.1957 16.7688 21.3336 16.0684 21.3335V21.334ZM16.0684 7.784C14.4433 7.784 12.8547 8.2659 11.5035 9.16877C10.1523 10.0716 9.09913 11.3549 8.47726 12.8563C7.85538 14.3577 7.6927 16.0098 8.00977 17.6036C8.32685 19.1975 9.10945 20.6615 10.2586 21.8106C11.4077 22.9597 12.8718 23.7422 14.4657 24.0592C16.0596 24.3762 17.7117 24.2134 19.213 23.5914C20.7144 22.9694 21.9976 21.9162 22.9004 20.565C23.8032 19.2137 24.285 17.6251 24.2849 16C24.2849 14.921 24.0723 13.8526 23.6594 12.8558C23.2465 11.8589 22.6413 10.9532 21.8783 10.1902C21.1153 9.4273 20.2095 8.82213 19.2126 8.40926C18.2158 7.9964 17.1473 7.78393 16.0684 7.784ZM16.0684 2.884C20.3409 2.884 20.8464 2.899 22.5334 2.977C23.5481 2.98862 24.5532 3.17466 25.5049 3.527C26.1999 3.78351 26.8287 4.19253 27.3449 4.724C27.8764 5.24011 28.2855 5.86887 28.5419 6.564C28.894 7.51552 29.08 8.52047 29.0919 9.535C29.1689 11.2225 29.1854 11.728 29.1854 16C29.1854 20.272 29.1689 20.7785 29.0919 22.466C29.0802 23.4805 28.8941 24.4855 28.5419 25.437C28.2756 26.1271 27.8678 26.7539 27.3448 27.2769C26.8217 27.8 26.195 28.2077 25.5049 28.474C24.5533 28.8261 23.5484 29.0122 22.5339 29.024C20.8489 29.101 20.3429 29.1175 16.0689 29.1175C11.7949 29.1175 11.2919 29.101 9.60386 29.024C8.58966 29.0122 7.58503 28.8262 6.63386 28.474C5.93879 28.2175 5.31005 27.8085 4.79386 27.277C4.26237 26.7608 3.85334 26.1321 3.59686 25.437C3.24471 24.4855 3.05867 23.4805 3.04686 22.466C2.96986 20.7785 2.95186 20.2725 2.95186 16C2.95186 11.7275 2.96836 11.222 3.04586 9.535C3.05748 8.52029 3.24352 7.51514 3.59586 6.5635C3.85237 5.86843 4.26139 5.23969 4.79286 4.7235C5.30897 4.19193 5.93773 3.78289 6.63286 3.5265C7.58438 3.17435 8.58933 2.98831 9.60386 2.9765C11.2909 2.9 11.7964 2.883 16.0689 2.883L16.0684 2.884ZM16.0684 0C11.7234 0 11.1784 0.0185 9.47136 0.096C8.14428 0.122773 6.83134 0.374338 5.58836 0.84C4.52037 1.24139 3.55285 1.87104 2.75336 2.685C1.9394 3.48449 1.30975 4.45201 0.908359 5.52C0.442725 6.76299 0.191162 8.07592 0.164359 9.403C0.0868594 11.11 0.0683594 11.655 0.0683594 16C0.0683594 20.345 0.0868594 20.89 0.164359 22.597C0.191162 23.9241 0.442725 25.237 0.908359 26.48C1.30975 27.548 1.9394 28.5155 2.75336 29.315C3.55293 30.1289 4.52042 30.7585 5.58836 31.16C6.83138 31.6255 8.14431 31.8769 9.47136 31.9035C11.1779 31.9815 11.7214 32 16.0684 32C20.4154 32 20.9584 31.9815 22.6654 31.9035C23.9926 31.8769 25.3057 31.6255 26.5489 31.16C27.6119 30.7489 28.5773 30.1203 29.3832 29.3144C30.1891 28.5084 30.8178 27.543 31.2289 26.48C31.6949 25.2369 31.9468 23.9238 31.9739 22.5965C32.0499 20.89 32.0684 20.345 32.0684 16C32.0684 11.655 32.0499 11.11 31.9719 9.403C31.9453 8.07578 31.6939 6.76268 31.2284 5.5195C30.8269 4.45156 30.1972 3.48407 29.3834 2.6845C28.5838 1.87063 27.6163 1.24099 26.5484 0.8395C25.3054 0.373695 23.9925 0.121962 22.6654 0.095C20.9584 0.0185 20.4134 0 16.0684 0Z" fill="white"/>
</svg>
