<svg width="33" height="26" viewBox="0 0 33 26" fill="none" xmlns="http://www.w3.org/2000/svg">
<path d="M32.0684 3.1C30.918 3.64902 29.6846 4.00381 28.4184 4.15C29.7056 3.28469 30.6721 2.01952 31.1684 0.550003C30.2184 1.15 28.1184 2 27.0684 2C25.7909 0.732067 24.0682 0.0142363 22.2684 3.20737e-06C21.4014 -0.000851885 20.5428 0.169279 19.7416 0.500657C18.9405 0.832035 18.2126 1.31815 17.5995 1.93119C16.9865 2.54423 16.5004 3.27215 16.169 4.07328C15.8376 4.87442 15.6675 5.73304 15.6684 6.6C15.6662 7.08732 15.7165 7.57345 15.8184 8.05C10.8684 7.9 5.06836 5.45 1.81836 1.2C1.00239 2.63733 0.755137 4.32841 1.12543 5.93918C1.49572 7.54996 2.45664 8.96329 3.81836 9.9C3.06836 10 1.61836 9.85 0.968359 9.2C0.918359 11.5 2.01836 14.55 6.06836 15.65C5.26836 16.05 3.91836 15.95 3.31836 15.85C3.51836 17.8 6.26836 20.35 9.21836 20.35C8.16836 21.55 4.56836 23.8 0.0683594 23.1C3.1873 24.9971 6.76775 26.0004 10.4184 26C12.9207 26.0166 15.4002 25.5226 17.7051 24.5482C20.01 23.5738 22.0919 22.1395 23.8236 20.333C25.5552 18.5264 26.9001 16.3857 27.7761 14.0416C28.6522 11.6975 29.0408 9.19942 28.9184 6.7V6.45C30.1844 5.55825 31.2561 4.41852 32.0684 3.1Z" fill="white"/>
</svg>
